# xmcd CD database file
# Copyright (C) 1993-1996 Ti Kan
#
# Track frame offsets:
#	150
#	10080
#	31025
#	45777
#	64297
#	82410
#	91572
#	112867
#	129275
#	151805
#	162312
#	176285
#	186037
#	208355
#	239595
#	255912
#
# Disc length: 3679 seconds
#
# Revision: 1
# Processed by: cddbd v1.4b41PL1 Copyright (c) Steve Scherf et al.
# Submitted via: CDValet v3.01 - Copyright (c) 1997 Greg Leichner
#
DISCID=bb0e5d10
DTITLE=Billy Lee Riley - Hot Damn!
DYEAR=1900
DGENRE=
TTITLE0=Fine Little Mamma
TTITLE1=Winter Time Blues
TTITLE2=I'm Him
TTITLE3=It Never Rains Till It Rains On You
TTITLE4=Nothin' But The Devil
TTITLE5=I'm Gonna Quit You Pretty Baby
TTITLE6=Rock Me Baby
TTITLE7=Take Me Back Baby
TTITLE8=Rainy Night In Georgia
TTITLE9=Too Close Blues
TTITLE10=Rainin' In My Heart
TTITLE11=Cause You Got A Little Money
TTITLE12=Blues For My Baby
TTITLE13=How Come We All Ain't Got The Same
TTITLE14=You Gonna Miss Me
TTITLE15=Time Ain't On My Side
EXTD=
EXTT0=
EXTT1=
EXTT2=
EXTT3=
EXTT4=
EXTT5=
EXTT6=
EXTT7=
EXTT8=
EXTT9=
EXTT10=
EXTT11=
EXTT12=
EXTT13=
EXTT14=
EXTT15=
PLAYORDER=
